<!--?xml version="1.0" encoding="utf-8"?-->
<!-- Svg Vector Icons : http://www.onlinewebfonts.com/icon -->

<svg version="1.1" xmlns="http://www.w3.org/2000/svg" xmlns:xlink="http://www.w3.org/1999/xlink" x="0px" y="0px" viewBox="0 0 256 256" enable-background="new 0 0 256 256" xml:space="preserve">
<metadata> Svg Vector Icons : http://www.onlinewebfonts.com/icon </metadata>
<g><g><path fill="#FFFFFF" data-title="Layer 0" xs="0" d="M79.7,103.3c11.2,1.1,15.7-9,15.7-19.1c1.1-10.1-3.4-21.4-14.6-21.4c-11.2,0-15.7,9-16.9,19.1C63.9,92,68.4,102.2,79.7,103.3"/><path fill="#FFFFFF" data-title="Layer 1" xs="1" d="M175.2,102.2c11.2,1.1,15.7-7.9,16.9-18c0-10.1-3.4-21.4-15.7-21.4c-11.2,0-13.5,7.9-14.6,18C160.6,90.9,164,101,175.2,102.2"/><path fill="#FFFFFF" data-title="Layer 2" xs="2" d="M194.3,134.7c-43.8,1.1-86.5,1.1-130.4,0c-16.9,0-18,7.9-13.5,21.4C60.6,188.7,90.9,210,128,210c39.3,0,67.4-20.2,78.7-56.2C210,140.4,210,134.7,194.3,134.7"/><path fill="#FFFFFF" data-title="Layer 3" xs="3" d="M128,246c-65.2,0-118-52.8-118-118C10,62.8,62.8,10,128,10c65.2,0,118,52.8,118,118C246,193.2,193.2,246,128,246z M128,21.2C69.6,21.2,21.2,69.6,21.2,128c0,58.4,48.3,106.8,106.8,106.8c58.4,0,106.8-48.3,106.8-106.8C234.8,69.6,186.4,21.2,128,21.2z"/></g></g>
</svg>